<svg width="49" height="49" viewBox="0 0 49 49" fill="none" xmlns="http://www.w3.org/2000/svg">
<path d="M24.5 48C37.4787 48 48 37.4787 48 24.5C48 11.5213 37.4787 1 24.5 1C11.5213 1 1 11.5213 1 24.5C1 37.4787 11.5213 48 24.5 48Z" stroke="#E5E5E5"/>
<path d="M24.5556 44.1112C35.3559 44.1112 44.1112 35.3559 44.1112 24.5556C44.1112 13.7553 35.3559 5 24.5556 5C13.7553 5 5 13.7553 5 24.5556C5 35.3559 13.7553 44.1112 24.5556 44.1112Z" fill="url(#paint0_linear_72_14)"/>
<mask id="mask0_72_14" style="mask-type:luminance" maskUnits="userSpaceOnUse" x="19" y="19" width="13" height="13">
<path d="M31.4444 19H19V31.4444H31.4444V19Z" fill="white"/>
</mask>
<g mask="url(#mask0_72_14)">
<path d="M30.4459 27.1684C29.684 27.1684 28.9359 27.0492 28.227 26.8149C27.8796 26.6965 27.4526 26.8052 27.2406 27.0229L25.8413 28.0792C24.2186 27.213 23.219 26.2137 22.3646 24.6032L23.3898 23.2404C23.6562 22.9744 23.7517 22.5858 23.6372 22.2212C23.402 21.5086 23.2824 20.7609 23.2824 19.9986C23.2825 19.448 22.8345 19 22.2839 19H19.9985C19.4479 19 19 19.448 19 19.9986C19 26.3099 24.1345 31.4445 30.4459 31.4445C30.9965 31.4445 31.4444 30.9965 31.4444 30.4459V28.1669C31.4444 27.6164 30.9964 27.1684 30.4459 27.1684Z" fill="white"/>
</g>
<defs>
<linearGradient id="paint0_linear_72_14" x1="5.0001" y1="44.1112" x2="44.1112" y2="5.0001" gradientUnits="userSpaceOnUse">
<stop stop-color="#1D4FCF"/>
<stop offset="1" stop-color="#0586E8"/>
</linearGradient>
</defs>
</svg>
