<svg width="59" height="22" viewBox="0 0 59 22" fill="none" xmlns="http://www.w3.org/2000/svg">
<g clip-path="url(#clip0_0_111)">
<path d="M53.5862 1H44.4138C41.4286 1 39 3.42858 39 6.41381V15.5863C39 18.5714 41.4286 21 44.4138 21H53.5863C56.5714 21 59 18.5714 59 15.5863V6.41381C59 3.42858 56.5714 1 53.5862 1V1ZM49 16.4686C45.9845 16.4686 43.5314 14.0154 43.5314 11C43.5314 7.98454 45.9845 5.53139 49 5.53139C52.0154 5.53139 54.4686 7.98454 54.4686 11C54.4686 14.0154 52.0154 16.4686 49 16.4686ZM54.5993 6.82106C53.7082 6.82106 52.9834 6.09627 52.9834 5.20516C52.9834 4.31405 53.7082 3.58911 54.5993 3.58911C55.4904 3.58911 56.2154 4.31405 56.2154 5.20516C56.2154 6.09627 55.4904 6.82106 54.5993 6.82106Z" fill="#C4C4C4"/>
<path d="M49 6.70386C46.6312 6.70386 44.7039 8.63104 44.7039 11C44.7039 13.3687 46.6312 15.2961 49 15.2961C51.3689 15.2961 53.2961 13.3687 53.2961 11C53.2961 8.63104 51.3689 6.70386 49 6.70386Z" fill="#C4C4C4"/>
<path d="M54.5993 4.76172C54.3549 4.76172 54.1559 4.96069 54.1559 5.20514C54.1559 5.44958 54.3549 5.64856 54.5993 5.64856C54.8439 5.64856 55.0429 5.44974 55.0429 5.20514C55.0429 4.96054 54.8439 4.76172 54.5993 4.76172Z" fill="#C4C4C4"/>
</g>
<g clip-path="url(#clip1_0_111)">
<path d="M18.2554 11.9423C17.8997 11.4931 18.0015 11.2933 18.2554 10.8918C18.26 10.8872 21.1961 6.83 21.4986 5.45409L21.5004 5.45317C21.6507 4.95175 21.5004 4.58325 20.7735 4.58325H18.3682C17.7558 4.58325 17.4735 4.8995 17.3222 5.25334C17.3222 5.25334 16.0976 8.18484 14.3651 10.0851C13.8059 10.6342 13.5474 10.8102 13.2422 10.8102C13.0918 10.8102 12.8581 10.6342 12.8581 10.1328V5.45317C12.8581 4.85184 12.6867 4.58325 12.1797 4.58325H8.39758C8.01349 4.58325 7.78524 4.86375 7.78524 5.125C7.78524 5.69517 8.65149 5.82625 8.74133 7.43042V10.911C8.74133 11.6737 8.60291 11.8139 8.29583 11.8139C7.47816 11.8139 5.49358 8.8705 4.31749 5.50175C4.08008 4.84817 3.84816 4.58417 3.23124 4.58417H0.824992C0.138409 4.58417 -7.62939e-06 4.90042 -7.62939e-06 5.25425C-7.62939e-06 5.87942 0.817659 8.98784 3.80233 13.0945C5.79149 15.8977 8.59283 17.4166 11.1412 17.4166C12.6729 17.4166 12.8599 17.0793 12.8599 16.499C12.8599 13.8205 12.7215 13.5675 13.4887 13.5675C13.8444 13.5675 14.4567 13.7435 15.8867 15.0956C17.5212 16.6988 17.7897 17.4166 18.7046 17.4166H21.1099C21.7956 17.4166 22.143 17.0793 21.9432 16.4138C21.4857 15.014 18.3947 12.1348 18.2554 11.9423Z" fill="#C4C4C4"/>
</g>
<defs>
<clipPath id="clip0_0_111">
<rect width="20" height="20" fill="white" transform="translate(39 1)"/>
</clipPath>
<clipPath id="clip1_0_111">
<rect width="22" height="22" fill="white"/>
</clipPath>
</defs>
</svg>
