<svg width="166" height="18" viewBox="0 0 166 18" fill="none" xmlns="http://www.w3.org/2000/svg">
<path d="M99 1H100V17H99V1Z" fill="#C4C4C4"/>
<path d="M142.352 5.6L138.632 14H137.756L134.036 5.6H134.996L138.212 12.896L141.452 5.6H142.352ZM143.356 7.688H144.208V14H143.356V7.688ZM143.788 6.308C143.612 6.308 143.464 6.248 143.344 6.128C143.224 6.008 143.164 5.864 143.164 5.696C143.164 5.536 143.224 5.396 143.344 5.276C143.464 5.156 143.612 5.096 143.788 5.096C143.964 5.096 144.112 5.156 144.232 5.276C144.352 5.388 144.412 5.524 144.412 5.684C144.412 5.86 144.352 6.008 144.232 6.128C144.112 6.248 143.964 6.308 143.788 6.308ZM149.831 7.64C150.423 7.64 150.959 7.776 151.439 8.048C151.919 8.312 152.295 8.688 152.567 9.176C152.839 9.664 152.975 10.22 152.975 10.844C152.975 11.468 152.839 12.024 152.567 12.512C152.295 13 151.919 13.38 151.439 13.652C150.959 13.924 150.423 14.06 149.831 14.06C149.303 14.06 148.827 13.948 148.403 13.724C147.987 13.5 147.651 13.176 147.395 12.752V14H146.579V5.096H147.431V8.888C147.695 8.48 148.031 8.172 148.439 7.964C148.855 7.748 149.319 7.64 149.831 7.64ZM149.771 13.304C150.211 13.304 150.611 13.204 150.971 13.004C151.331 12.796 151.611 12.504 151.811 12.128C152.019 11.752 152.123 11.324 152.123 10.844C152.123 10.364 152.019 9.936 151.811 9.56C151.611 9.184 151.331 8.896 150.971 8.696C150.611 8.488 150.211 8.384 149.771 8.384C149.323 8.384 148.919 8.488 148.559 8.696C148.207 8.896 147.927 9.184 147.719 9.56C147.519 9.936 147.419 10.364 147.419 10.844C147.419 11.324 147.519 11.752 147.719 12.128C147.927 12.504 148.207 12.796 148.559 13.004C148.919 13.204 149.323 13.304 149.771 13.304ZM160.207 11.108H154.927C154.975 11.764 155.227 12.296 155.683 12.704C156.139 13.104 156.715 13.304 157.411 13.304C157.803 13.304 158.163 13.236 158.491 13.1C158.819 12.956 159.103 12.748 159.343 12.476L159.823 13.028C159.543 13.364 159.191 13.62 158.767 13.796C158.351 13.972 157.891 14.06 157.387 14.06C156.739 14.06 156.163 13.924 155.659 13.652C155.163 13.372 154.775 12.988 154.495 12.5C154.215 12.012 154.075 11.46 154.075 10.844C154.075 10.228 154.207 9.676 154.471 9.188C154.743 8.7 155.111 8.32 155.575 8.048C156.047 7.776 156.575 7.64 157.159 7.64C157.743 7.64 158.267 7.776 158.731 8.048C159.195 8.32 159.559 8.7 159.823 9.188C160.087 9.668 160.219 10.22 160.219 10.844L160.207 11.108ZM157.159 8.372C156.551 8.372 156.039 8.568 155.623 8.96C155.215 9.344 154.983 9.848 154.927 10.472H159.403C159.347 9.848 159.111 9.344 158.695 8.96C158.287 8.568 157.775 8.372 157.159 8.372ZM162.77 8.924C162.97 8.5 163.266 8.18 163.658 7.964C164.058 7.748 164.55 7.64 165.134 7.64V8.468L164.93 8.456C164.266 8.456 163.746 8.66 163.37 9.068C162.994 9.476 162.806 10.048 162.806 10.784V14H161.954V7.688H162.77V8.924Z" fill="#C4C4C4"/>
<g clip-path="url(#clip0_0_118)">
<path d="M117.612 10.1696C117.406 10.3756 117.072 10.3756 116.866 10.1696L114.47 7.77324C114.371 7.67436 114.315 7.54019 114.315 7.40039C114.315 7.26045 114.371 7.12642 114.47 7.0274L114.896 6.60155L113.645 5.35034L112.62 6.37537C112.275 6.72034 112.275 7.2816 112.62 7.62657L117.013 12.0201C117.179 12.1862 117.401 12.2775 117.639 12.2775C117.876 12.2775 118.098 12.186 118.264 12.02L119.289 10.9951L118.038 9.74377L117.612 10.1696Z" fill="#C4C4C4"/>
<path d="M125.244 6.35312C125.244 4.66246 124.581 3.06889 123.378 1.86575C122.175 0.662613 120.581 0 118.891 0H115.126C115.126 0 115.126 0 115.126 0C113.436 0 111.842 0.662613 110.639 1.86562C109.436 3.06876 108.773 4.66246 108.773 6.35298V9.31187C108.773 10.621 109.173 11.8805 109.928 12.954C110.595 13.901 111.491 14.6407 112.537 15.1098V16.8094C112.537 17.6881 113.029 17.9999 113.45 18C113.751 18 114.052 17.8514 114.345 17.5585L116.239 15.6649H118.891C120.581 15.6649 122.175 15.0022 123.378 13.7991C124.581 12.596 125.244 11.0024 125.244 9.31187L125.244 6.35312ZM120.408 11.368L119.01 12.7658C118.645 13.1311 118.158 13.332 117.639 13.332C117.119 13.332 116.633 13.131 116.267 12.7658L111.874 8.37227C111.118 7.616 111.118 6.38567 111.874 5.62953L113.272 4.23166C113.371 4.13264 113.505 4.07716 113.645 4.07716C113.784 4.07716 113.919 4.13264 114.017 4.23166L116.015 6.2287C116.113 6.32758 116.169 6.46175 116.169 6.60155C116.169 6.74135 116.113 6.87552 116.014 6.9744L115.589 7.40025L117.239 9.05095L117.665 8.62495C117.871 8.4191 118.205 8.4191 118.411 8.62509L120.408 10.6221C120.507 10.721 120.562 10.8552 120.562 10.995C120.562 11.1349 120.507 11.2691 120.408 11.368ZM116.609 5.11949C116.609 4.82835 116.845 4.59215 117.137 4.59215C118.964 4.59215 120.45 6.0786 120.45 7.90562C120.45 8.1969 120.214 8.43297 119.923 8.43297C119.632 8.43297 119.396 8.1969 119.396 7.90562C119.396 6.66019 118.382 5.64684 117.137 5.64684C116.845 5.64684 116.609 5.41077 116.609 5.11949ZM122.182 8.43324C121.891 8.43324 121.655 8.19704 121.655 7.9059C121.655 6.69891 121.185 5.5643 120.331 4.7108C119.478 3.85744 118.343 3.38736 117.136 3.38736C116.845 3.38736 116.609 3.15129 116.609 2.86002C116.609 2.56888 116.845 2.33267 117.136 2.33267C118.625 2.33267 120.025 2.91248 121.077 3.9651C122.13 5.01773 122.71 6.41725 122.709 7.9059C122.709 8.19704 122.473 8.43324 122.182 8.43324Z" fill="#C4C4C4"/>
</g>
<path d="M38.9 5.6L36.068 14H35.132L32.672 6.836L30.2 14H29.276L26.444 5.6H27.356L29.78 12.824L32.288 5.6H33.116L35.588 12.86L38.048 5.6H38.9ZM43.7399 7.64C44.5319 7.64 45.1599 7.872 45.6239 8.336C46.0959 8.792 46.3319 9.46 46.3319 10.34V14H45.4799V10.424C45.4799 9.768 45.3159 9.268 44.9879 8.924C44.6599 8.58 44.1919 8.408 43.5839 8.408C42.9039 8.408 42.3639 8.612 41.9639 9.02C41.5719 9.42 41.3759 9.976 41.3759 10.688V14H40.5239V5.096H41.3759V8.792C41.6079 8.424 41.9279 8.14 42.3359 7.94C42.7439 7.74 43.2119 7.64 43.7399 7.64ZM50.853 7.64C51.677 7.64 52.309 7.848 52.749 8.264C53.189 8.672 53.409 9.28 53.409 10.088V14H52.593V13.016C52.401 13.344 52.117 13.6 51.741 13.784C51.373 13.968 50.933 14.06 50.421 14.06C49.717 14.06 49.157 13.892 48.741 13.556C48.325 13.22 48.117 12.776 48.117 12.224C48.117 11.688 48.309 11.256 48.693 10.928C49.085 10.6 49.705 10.436 50.553 10.436H52.557V10.052C52.557 9.508 52.405 9.096 52.101 8.816C51.797 8.528 51.353 8.384 50.769 8.384C50.369 8.384 49.985 8.452 49.617 8.588C49.249 8.716 48.933 8.896 48.669 9.128L48.285 8.492C48.605 8.22 48.989 8.012 49.437 7.868C49.885 7.716 50.357 7.64 50.853 7.64ZM50.553 13.388C51.033 13.388 51.445 13.28 51.789 13.064C52.133 12.84 52.389 12.52 52.557 12.104V11.072H50.577C49.497 11.072 48.957 11.448 48.957 12.2C48.957 12.568 49.097 12.86 49.377 13.076C49.657 13.284 50.049 13.388 50.553 13.388ZM59.0472 13.616C58.8872 13.76 58.6872 13.872 58.4472 13.952C58.2152 14.024 57.9712 14.06 57.7152 14.06C57.1232 14.06 56.6672 13.9 56.3472 13.58C56.0272 13.26 55.8672 12.808 55.8672 12.224V8.408H54.7392V7.688H55.8672V6.308H56.7192V7.688H58.6392V8.408H56.7192V12.176C56.7192 12.552 56.8112 12.84 56.9952 13.04C57.1872 13.232 57.4592 13.328 57.8112 13.328C57.9872 13.328 58.1552 13.3 58.3152 13.244C58.4832 13.188 58.6272 13.108 58.7472 13.004L59.0472 13.616ZM62.2902 14.06C61.7782 14.06 61.2862 13.988 60.8142 13.844C60.3502 13.692 59.9862 13.504 59.7222 13.28L60.1062 12.608C60.3702 12.816 60.7022 12.988 61.1022 13.124C61.5022 13.252 61.9182 13.316 62.3502 13.316C62.9262 13.316 63.3502 13.228 63.6222 13.052C63.9022 12.868 64.0422 12.612 64.0422 12.284C64.0422 12.052 63.9662 11.872 63.8142 11.744C63.6622 11.608 63.4702 11.508 63.2382 11.444C63.0062 11.372 62.6982 11.304 62.3142 11.24C61.8022 11.144 61.3902 11.048 61.0782 10.952C60.7662 10.848 60.4982 10.676 60.2742 10.436C60.0582 10.196 59.9502 9.864 59.9502 9.44C59.9502 8.912 60.1702 8.48 60.6102 8.144C61.0502 7.808 61.6622 7.64 62.4462 7.64C62.8542 7.64 63.2622 7.696 63.6702 7.808C64.0782 7.912 64.4142 8.052 64.6782 8.228L64.3062 8.912C63.7862 8.552 63.1662 8.372 62.4462 8.372C61.9022 8.372 61.4902 8.468 61.2102 8.66C60.9382 8.852 60.8022 9.104 60.8022 9.416C60.8022 9.656 60.8782 9.848 61.0302 9.992C61.1902 10.136 61.3862 10.244 61.6182 10.316C61.8502 10.38 62.1702 10.448 62.5782 10.52C63.0822 10.616 63.4862 10.712 63.7902 10.808C64.0942 10.904 64.3542 11.068 64.5702 11.3C64.7862 11.532 64.8942 11.852 64.8942 12.26C64.8942 12.812 64.6622 13.252 64.1982 13.58C63.7422 13.9 63.1062 14.06 62.2902 14.06ZM71.9173 11.756H67.2373L66.2293 14H65.3053L69.1453 5.6H70.0213L73.8613 14H72.9253L71.9173 11.756ZM71.5933 11.036L69.5773 6.524L67.5613 11.036H71.5933ZM78.3228 7.64C78.9148 7.64 79.4508 7.776 79.9308 8.048C80.4108 8.312 80.7868 8.688 81.0588 9.176C81.3308 9.664 81.4668 10.22 81.4668 10.844C81.4668 11.476 81.3308 12.036 81.0588 12.524C80.7868 13.012 80.4108 13.392 79.9308 13.664C79.4588 13.928 78.9228 14.06 78.3228 14.06C77.8108 14.06 77.3468 13.956 76.9308 13.748C76.5228 13.532 76.1868 13.22 75.9228 12.812V16.328H75.0708V7.688H75.8868V8.936C76.1428 8.52 76.4788 8.2 76.8948 7.976C77.3188 7.752 77.7948 7.64 78.3228 7.64ZM78.2628 13.304C78.7028 13.304 79.1028 13.204 79.4628 13.004C79.8228 12.796 80.1028 12.504 80.3028 12.128C80.5108 11.752 80.6148 11.324 80.6148 10.844C80.6148 10.364 80.5108 9.94 80.3028 9.572C80.1028 9.196 79.8228 8.904 79.4628 8.696C79.1028 8.488 78.7028 8.384 78.2628 8.384C77.8148 8.384 77.4108 8.488 77.0508 8.696C76.6988 8.904 76.4188 9.196 76.2108 9.572C76.0108 9.94 75.9108 10.364 75.9108 10.844C75.9108 11.324 76.0108 11.752 76.2108 12.128C76.4188 12.504 76.6988 12.796 77.0508 13.004C77.4108 13.204 77.8148 13.304 78.2628 13.304ZM86.4556 7.64C87.0476 7.64 87.5836 7.776 88.0636 8.048C88.5436 8.312 88.9196 8.688 89.1916 9.176C89.4636 9.664 89.5996 10.22 89.5996 10.844C89.5996 11.476 89.4636 12.036 89.1916 12.524C88.9196 13.012 88.5436 13.392 88.0636 13.664C87.5916 13.928 87.0556 14.06 86.4556 14.06C85.9436 14.06 85.4796 13.956 85.0636 13.748C84.6556 13.532 84.3196 13.22 84.0556 12.812V16.328H83.2036V7.688H84.0196V8.936C84.2756 8.52 84.6116 8.2 85.0276 7.976C85.4516 7.752 85.9276 7.64 86.4556 7.64ZM86.3956 13.304C86.8356 13.304 87.2356 13.204 87.5956 13.004C87.9556 12.796 88.2356 12.504 88.4356 12.128C88.6436 11.752 88.7476 11.324 88.7476 10.844C88.7476 10.364 88.6436 9.94 88.4356 9.572C88.2356 9.196 87.9556 8.904 87.5956 8.696C87.2356 8.488 86.8356 8.384 86.3956 8.384C85.9476 8.384 85.5436 8.488 85.1836 8.696C84.8316 8.904 84.5516 9.196 84.3436 9.572C84.1436 9.94 84.0436 10.364 84.0436 10.844C84.0436 11.324 84.1436 11.752 84.3436 12.128C84.5516 12.504 84.8316 12.796 85.1836 13.004C85.5436 13.204 85.9476 13.304 86.3956 13.304Z" fill="#C4C4C4"/>
<g clip-path="url(#clip1_0_118)">
<path d="M9.00225 0H8.99775C4.03538 0 0 4.0365 0 9C0 10.9688 0.6345 12.7935 1.71337 14.2751L0.59175 17.6186L4.05113 16.5128C5.47425 17.4555 7.17188 18 9.00225 18C13.9646 18 18 13.9624 18 9C18 4.03763 13.9646 0 9.00225 0ZM14.2391 12.7091C14.022 13.3223 13.1602 13.8307 12.4729 13.9792C12.0026 14.0794 11.3884 14.1593 9.32063 13.302C6.67575 12.2063 4.9725 9.51862 4.83975 9.34425C4.71263 9.16988 3.771 7.92112 3.771 6.62963C3.771 5.33813 4.42688 4.70925 4.69125 4.43925C4.90838 4.21763 5.26725 4.11637 5.6115 4.11637C5.72288 4.11637 5.823 4.122 5.913 4.1265C6.17737 4.13775 6.31012 4.1535 6.4845 4.57088C6.70162 5.094 7.23037 6.3855 7.29338 6.51825C7.3575 6.651 7.42163 6.831 7.33162 7.00538C7.24725 7.18538 7.173 7.26525 7.04025 7.41825C6.9075 7.57125 6.7815 7.68825 6.64875 7.8525C6.52725 7.99538 6.39 8.14838 6.543 8.41275C6.696 8.6715 7.22475 9.53437 8.00325 10.2274C9.00787 11.1217 9.82237 11.4075 10.1137 11.529C10.3309 11.619 10.5896 11.5976 10.7483 11.4289C10.9496 11.2118 11.1982 10.8518 11.4514 10.4974C11.6314 10.2431 11.8586 10.2116 12.0971 10.3016C12.3401 10.386 13.626 11.0216 13.8904 11.1532C14.1547 11.286 14.3291 11.349 14.3932 11.4604C14.4562 11.5718 14.4562 12.0949 14.2391 12.7091Z" fill="#C4C4C4"/>
</g>
<defs>
<clipPath id="clip0_0_118">
<rect width="18" height="18" fill="white" transform="translate(108)"/>
</clipPath>
<clipPath id="clip1_0_118">
<rect width="18" height="18" fill="white"/>
</clipPath>
</defs>
</svg>
